<?xml version="1.0" encoding="UTF-8" standalone="no"?>
<!DOCTYPE svg PUBLIC "-//W3C//DTD SVG 1.1//EN" "http://www.w3.org/Graphics/SVG/1.1/DTD/svg11.dtd">
<svg width="100%" height="100%" viewBox="0 0 50 50" version="1.1" xmlns="http://www.w3.org/2000/svg"
     xml:space="preserve"
     style="fill-rule:evenodd;clip-rule:evenodd;stroke-miterlimit:3.86;">
    <g transform="matrix(1,0,0,1,0.536674,0.729471)">
        <g id="bS_LOGO">
            <g id="Gruppe_129">
                <clipPath id="_clip1">
                    <rect x="0" y="0" width="48.926" height="48.541"/>
                </clipPath>
                <g clip-path="url(#_clip1)">
                    <g id="Gruppe_126">
                        <g id="Logo_BuildingSMART_RGB">
                            <g id="Pfad_793" transform="matrix(1,0,0,1,-100.069,-140.55)">
                                <path d="M110.906,170.3C111.802,171.265 113.061,171.814 114.378,171.814C115.575,171.814 116.73,171.36 117.606,170.544L123.89,164.719L119.942,160.468L110.184,169.512L110.906,170.3Z" style="fill:rgb(3,80,158);fill-rule:nonzero;"/>
                            </g>
                            <g id="Pfad_794" transform="matrix(1,0,0,1,-100.069,-140.55)">
                                <path d="M110.906,170.3C111.802,171.265 113.061,171.814 114.378,171.814C115.575,171.814 116.73,171.36 117.606,170.544L123.89,164.719L119.942,160.468L110.184,169.512L110.906,170.3Z" style="fill:none;fill-rule:nonzero;stroke:rgb(0,83,159);stroke-width:0.25px;"/>
                            </g>
                            <g id="Pfad_795" transform="matrix(1,0,0,1,-68.814,-79.037)">
                                <path d="M70.082,98.542L74.044,102.827L78.3,98.879L75.066,95.379L85.8,85.425L97.865,98.425L98.681,97.692C100.585,95.921 100.695,92.897 98.925,90.992L89.36,80.666C88.464,79.701 87.205,79.152 85.888,79.152C84.691,79.152 83.536,79.606 82.66,80.422L70.326,91.847C69.362,92.743 68.814,94.001 68.814,95.316C68.814,96.513 69.267,97.666 70.082,98.542" style="fill:rgb(3,80,158);fill-rule:nonzero;"/>
                            </g>
                            <g id="Pfad_796" transform="matrix(1,0,0,1,-68.814,-79.037)">
                                <path d="M70.082,98.542L74.044,102.827L78.3,98.879L75.066,95.379L85.8,85.425L97.865,98.425L98.681,97.692C100.585,95.921 100.695,92.897 98.925,90.992L89.36,80.666C88.464,79.701 87.205,79.152 85.888,79.152C84.691,79.152 83.536,79.606 82.66,80.422L70.326,91.847C69.362,92.743 68.814,94.001 68.814,95.316C68.814,96.513 69.267,97.666 70.082,98.542Z" style="fill:none;fill-rule:nonzero;stroke:rgb(0,83,159);stroke-width:0.25px;"/>
                            </g>
                            <g id="Pfad_797" transform="matrix(1,0,0,1,-130.632,-155.193)">
                                <path d="M160.461,192.8C162.363,191.03 162.473,188.009 160.705,186.105L154.875,179.821L150.629,183.776L159.673,193.534L160.461,192.8Z" style="fill:rgb(159,53,139);fill-rule:nonzero;"/>
                            </g>
                            <g id="Pfad_798" transform="matrix(1,0,0,1,-130.632,-155.193)">
                                <path d="M160.461,192.8C162.363,191.03 162.473,188.009 160.705,186.105L154.875,179.821L150.629,183.776L159.673,193.534L160.461,192.8Z" style="fill:none;fill-rule:nonzero;stroke:rgb(166,52,147);stroke-width:0.25px;"/>
                            </g>
                            <g id="Pfad_799" transform="matrix(1,0,0,1,-69.192,-131.893)">
                                <path d="M88.7,179.01L92.973,175.048L89.035,170.79L85.544,174.024L75.591,163.293L88.6,151.228L87.845,150.416C86.949,149.452 85.691,148.904 84.376,148.904C83.179,148.904 82.026,149.357 81.15,150.172L70.825,159.732C69.861,160.628 69.313,161.886 69.313,163.201C69.313,164.398 69.766,165.551 70.581,166.427L82.006,178.749C82.902,179.713 84.161,180.262 85.478,180.262C86.675,180.262 87.829,179.808 88.706,178.993" style="fill:rgb(159,53,139);fill-rule:nonzero;"/>
                            </g>
                            <g id="Pfad_800" transform="matrix(1,0,0,1,-69.192,-131.893)">
                                <path d="M88.7,179.01L92.973,175.048L89.035,170.79L85.544,174.024L75.591,163.293L88.6,151.228L87.845,150.416C86.949,149.452 85.691,148.904 84.376,148.904C83.179,148.904 82.026,149.357 81.15,150.172L70.825,159.732C69.861,160.628 69.313,161.886 69.313,163.201C69.313,164.398 69.766,165.551 70.581,166.427L82.006,178.749C83.771,180.655 86.792,180.773 88.7,179.01Z" style="fill:none;fill-rule:nonzero;stroke:rgb(166,52,147);stroke-width:0.25px;"/>
                            </g>
                            <g id="Pfad_801" transform="matrix(1,0,0,1,-145.267,-131.903)">
                                <path d="M182.974,150.552C182.078,149.587 180.819,149.038 179.502,149.038C178.305,149.038 177.15,149.492 176.274,150.308L170,156.118L173.948,160.376L183.706,151.332L182.974,150.552Z" style="fill:rgb(0,158,175);fill-rule:nonzero;"/>
                            </g>
                            <g id="Pfad_802" transform="matrix(1,0,0,1,-145.267,-131.903)">
                                <path d="M182.974,150.552C182.078,149.587 180.819,149.038 179.502,149.038C178.305,149.038 177.15,149.492 176.274,150.308L170,156.118L173.948,160.376L183.706,151.332L182.974,150.552Z" style="fill:none;fill-rule:nonzero;stroke:rgb(0,162,178);stroke-width:0.25px;"/>
                            </g>
                            <g id="Pfad_803" transform="matrix(1,0,0,1,-121.885,-155.388)">
                                <path d="M169.16,184.263L165.2,180L160.947,183.938L164.181,187.429L153.448,197.38L141.38,184.37L140.566,185.133C139.601,186.029 139.052,187.288 139.052,188.605C139.052,189.802 139.506,190.957 140.322,191.833L149.892,202.151C150.788,203.116 152.047,203.665 153.364,203.665C154.561,203.665 155.716,203.211 156.592,202.395L168.921,190.96C169.885,190.064 170.433,188.806 170.433,187.491C170.433,186.294 169.98,185.141 169.165,184.265" style="fill:rgb(0,158,175);fill-rule:nonzero;"/>
                            </g>
                            <g id="Pfad_804" transform="matrix(1,0,0,1,-121.885,-155.388)">
                                <path d="M169.16,184.263L165.2,180L160.947,183.938L164.181,187.429L153.448,197.38L141.38,184.37L140.566,185.133C139.601,186.029 139.052,187.288 139.052,188.605C139.052,189.802 139.506,190.957 140.322,191.833L149.892,202.151C150.788,203.116 152.047,203.665 153.364,203.665C154.561,203.665 155.716,203.211 156.592,202.395L168.921,190.96C170.823,189.191 170.933,186.17 169.165,184.267L169.16,184.263Z" style="fill:none;fill-rule:nonzero;stroke:rgb(0,162,178);stroke-width:0.25px;"/>
                            </g>
                            <g id="Pfad_805" transform="matrix(1,0,0,1,-121.99,-109.961)">
                                <path d="M140.706,120.756C139.742,121.652 139.193,122.911 139.193,124.228C139.193,125.425 139.647,126.579 140.462,127.456L146.287,133.738L150.545,129.79L141.5,120.03L140.706,120.756Z" style="fill:rgb(229,4,71);fill-rule:nonzero;"/>
                            </g>
                            <g id="Pfad_806" transform="matrix(1,0,0,1,-121.99,-109.961)">
                                <path d="M140.706,120.756C139.742,121.652 139.193,122.911 139.193,124.228C139.193,125.425 139.647,126.579 140.462,127.456L146.287,133.738L150.545,129.79L141.5,120.03L140.706,120.756Z" style="fill:none;fill-rule:nonzero;stroke:rgb(237,23,76);stroke-width:0.25px;"/>
                            </g>
                            <g id="Pfad_807" transform="matrix(1,0,0,1,-145.358,-78.689)">
                                <path d="M174.393,79.954L170.12,83.916L174.068,88.174L177.556,84.938L187.509,95.671L174.49,107.734L175.243,108.548C176.139,109.512 177.398,110.061 178.715,110.061C179.912,110.061 181.066,109.607 181.943,108.792L192.261,99.222C193.226,98.326 193.775,97.067 193.775,95.75C193.775,94.553 193.321,93.398 192.505,92.522L181.09,80.206C180.194,79.242 178.936,78.694 177.621,78.694C176.424,78.694 175.271,79.147 174.395,79.962" style="fill:rgb(229,4,71);fill-rule:nonzero;"/>
                            </g>
                            <g id="Pfad_808" transform="matrix(1,0,0,1,-145.358,-78.673)">
                                <path d="M174.393,79.938L170.12,83.9L174.068,88.158L177.556,84.922L187.509,95.655L174.49,107.718L175.243,108.532C176.139,109.496 177.398,110.045 178.715,110.045C179.912,110.045 181.066,109.591 181.943,108.776L192.261,99.206C193.226,98.31 193.775,97.051 193.775,95.734C193.775,94.537 193.321,93.382 192.505,92.506L181.09,80.19C180.194,79.223 178.934,78.673 177.616,78.673C176.421,78.673 175.269,79.125 174.393,79.938Z" style="fill:none;fill-rule:nonzero;stroke:rgb(237,23,76);stroke-width:0.25px;"/>
                            </g>
                        </g>
                    </g>
                </g>
            </g>
        </g>
    </g>
</svg>
